<svg width="277" height="393" viewBox="0 0 277 393" fill="none" xmlns="http://www.w3.org/2000/svg">
<rect x="10" y="10" width="257" height="373" stroke="#FF8680" stroke-width="20"/>
<circle cx="32.3335" cy="10" r="5" fill="#FFED69"/>
<circle cx="53.3335" cy="10" r="5" fill="#FFED69"/>
<circle cx="74.3335" cy="10" r="5" fill="#FFED69"/>
<circle cx="95.3335" cy="10" r="5" fill="#FFED69"/>
<circle cx="116.333" cy="10" r="5" fill="#FFED69"/>
<circle cx="137.333" cy="10" r="5" fill="#FFED69"/>
<circle cx="158.333" cy="10" r="5" fill="#FFED69"/>
<circle cx="179.333" cy="10" r="5" fill="#FFED69"/>
<circle cx="200.333" cy="10" r="5" fill="#FFED69"/>
<circle cx="221.333" cy="10" r="5" fill="#FFED69"/>
<circle cx="242.333" cy="10" r="5" fill="#FFED69"/>
<circle cx="267" cy="10" r="5" fill="#FFED69"/>
<circle cx="267" cy="29.8" r="5" transform="rotate(-90 267 29.8)" fill="#FFED69"/>
<circle cx="267" cy="49.6" r="5" transform="rotate(-90 267 49.6)" fill="#FFED69"/>
<circle cx="267" cy="69.4" r="5" transform="rotate(-90 267 69.4)" fill="#FFED69"/>
<circle cx="267" cy="89.2" r="5" transform="rotate(-90 267 89.2)" fill="#FFED69"/>
<circle cx="267" cy="109" r="5" transform="rotate(-90 267 109)" fill="#FFED69"/>
<circle cx="267" cy="128.8" r="5" transform="rotate(-90 267 128.8)" fill="#FFED69"/>
<circle cx="267" cy="148.6" r="5" transform="rotate(-90 267 148.6)" fill="#FFED69"/>
<circle cx="267" cy="168.4" r="5" transform="rotate(-90 267 168.4)" fill="#FFED69"/>
<circle cx="267" cy="188.2" r="5" transform="rotate(-90 267 188.2)" fill="#FFED69"/>
<circle cx="267" cy="208" r="5" transform="rotate(-90 267 208)" fill="#FFED69"/>
<circle cx="267" cy="227.8" r="5" transform="rotate(-90 267 227.8)" fill="#FFED69"/>
<circle cx="267" cy="247.6" r="5" transform="rotate(-90 267 247.6)" fill="#FFED69"/>
<circle cx="267" cy="267.4" r="5" transform="rotate(-90 267 267.4)" fill="#FFED69"/>
<circle cx="267" cy="287.2" r="5" transform="rotate(-90 267 287.2)" fill="#FFED69"/>
<circle cx="267" cy="307" r="5" transform="rotate(-90 267 307)" fill="#FFED69"/>
<circle cx="267" cy="326.8" r="5" transform="rotate(-90 267 326.8)" fill="#FFED69"/>
<circle cx="267" cy="346.6" r="5" transform="rotate(-90 267 346.6)" fill="#FFED69"/>
<circle cx="267" cy="366.4" r="5" transform="rotate(-90 267 366.4)" fill="#FFED69"/>
<circle cx="10" cy="10" r="5" fill="#FFED69"/>
<circle cx="10" cy="29.8" r="5" transform="rotate(-90 10 29.8)" fill="#FFED69"/>
<circle cx="10" cy="49.6" r="5" transform="rotate(-90 10 49.6)" fill="#FFED69"/>
<circle cx="10" cy="69.4" r="5" transform="rotate(-90 10 69.4)" fill="#FFED69"/>
<circle cx="10" cy="89.2" r="5" transform="rotate(-90 10 89.2)" fill="#FFED69"/>
<circle cx="10" cy="109" r="5" transform="rotate(-90 10 109)" fill="#FFED69"/>
<circle cx="10" cy="128.8" r="5" transform="rotate(-90 10 128.8)" fill="#FFED69"/>
<circle cx="10" cy="148.6" r="5" transform="rotate(-90 10 148.6)" fill="#FFED69"/>
<circle cx="10" cy="168.4" r="5" transform="rotate(-90 10 168.4)" fill="#FFED69"/>
<circle cx="10" cy="188.2" r="5" transform="rotate(-90 10 188.2)" fill="#FFED69"/>
<circle cx="10" cy="208" r="5" transform="rotate(-90 10 208)" fill="#FFED69"/>
<circle cx="10" cy="227.8" r="5" transform="rotate(-90 10 227.8)" fill="#FFED69"/>
<circle cx="10" cy="247.6" r="5" transform="rotate(-90 10 247.6)" fill="#FFED69"/>
<circle cx="10" cy="267.4" r="5" transform="rotate(-90 10 267.4)" fill="#FFED69"/>
<circle cx="10" cy="287.2" r="5" transform="rotate(-90 10 287.2)" fill="#FFED69"/>
<circle cx="10" cy="307" r="5" transform="rotate(-90 10 307)" fill="#FFED69"/>
<circle cx="10" cy="326.8" r="5" transform="rotate(-90 10 326.8)" fill="#FFED69"/>
<circle cx="10" cy="346.6" r="5" transform="rotate(-90 10 346.6)" fill="#FFED69"/>
<circle cx="10" cy="366.4" r="5" transform="rotate(-90 10 366.4)" fill="#FFED69"/>
<circle cx="10" cy="382.9" r="5" fill="#FFED69"/>
<circle cx="31.3701" cy="382.9" r="5" fill="#FFED69"/>
<circle cx="52.7402" cy="382.9" r="5" fill="#FFED69"/>
<circle cx="74.1099" cy="382.9" r="5" fill="#FFED69"/>
<circle cx="95.48" cy="382.9" r="5" fill="#FFED69"/>
<circle cx="116.85" cy="382.9" r="5" fill="#FFED69"/>
<circle cx="138.22" cy="382.9" r="5" fill="#FFED69"/>
<circle cx="159.59" cy="382.9" r="5" fill="#FFED69"/>
<circle cx="180.96" cy="382.9" r="5" fill="#FFED69"/>
<circle cx="202.33" cy="382.9" r="5" fill="#FFED69"/>
<circle cx="223.7" cy="382.9" r="5" fill="#FFED69"/>
<circle cx="245.07" cy="382.9" r="5" fill="#FFED69"/>
<circle cx="266.44" cy="382.9" r="5" fill="#FFED69"/>
</svg>
